<svg xmlns="http://www.w3.org/2000/svg" width="2339" height="1654" viewBox="0 0 2339 1654" version="1.1"><path d="M 1321.889 816.975 C 1304.763 835.303, 1298.551 845.648, 1295.433 861.035 C 1292.014 877.906, 1295.885 895.390, 1308.820 921.500 C 1313.001 929.940, 1314.465 937.051, 1314.480 949 C 1314.497 962.257, 1312.316 971.002, 1306.253 982 C 1298.290 996.445, 1280.617 1009.798, 1264.524 1013.531 C 1256.298 1015.438, 1241.497 1015.493, 1233.776 1013.645 C 1228.701 1012.430, 1227.795 1012.456, 1225.776 1013.877 C 1224.524 1014.758, 1207.525 1025.959, 1188 1038.768 C 1168.475 1051.577, 1152.394 1062.382, 1152.265 1062.778 C 1151.791 1064.233, 1167.821 1075.086, 1179.072 1080.928 C 1191.591 1087.428, 1206.530 1092.815, 1220 1095.688 C 1226.827 1097.143, 1232.831 1097.485, 1250.500 1097.423 C 1271.724 1097.348, 1272.906 1097.237, 1284 1094.293 C 1298.896 1090.340, 1309.241 1086.277, 1321 1079.761 C 1360.200 1058.037, 1388.410 1018.570, 1396.598 973.995 C 1398.945 961.217, 1398.965 937.811, 1396.639 925 C 1392.130 900.160, 1382.988 881.415, 1354.089 837.750 C 1342.532 820.288, 1332.866 806, 1332.610 806 C 1332.353 806, 1327.529 810.939, 1321.889 816.975" stroke="none" fill="#41b749" fill-rule="evenodd"/><path d="M 927.183 817.224 C 920.158 826.627, 909.366 847.664, 905.548 859.396 C 900.234 875.727, 898.666 886.100, 898.580 905.500 C 898.491 925.568, 900.056 936.756, 905.138 952.381 C 921.637 1003.106, 965.129 1041.834, 1018.312 1053.156 C 1031.904 1056.050, 1059.136 1056.326, 1072.202 1053.701 C 1092.016 1049.722, 1115.030 1039.842, 1135 1026.742 C 1139.675 1023.675, 1153.944 1014.266, 1166.708 1005.833 L 1189.916 990.500 1182.708 983.167 C 1168.206 968.415, 1154.485 958.946, 1141 954.387 C 1136.722 952.940, 1132.723 952.546, 1123 952.615 C 1107.953 952.720, 1099.063 955.046, 1081.135 963.568 C 1066.382 970.581, 1059.958 972.264, 1047.500 972.379 C 1035.199 972.493, 1029.191 971.095, 1017.089 965.303 C 1000.390 957.311, 987.370 941.419, 982.429 923 C 980.293 915.036, 980.063 900.875, 981.925 891.938 L 983.292 885.377 960.346 850.438 C 947.726 831.222, 936.492 814.026, 935.383 812.224 L 933.365 808.949 927.183 817.224" stroke="none" fill="#0076bc" fill-rule="evenodd"/><path d="M 1074.040 555.049 C 1060.371 556.357, 1049.892 558.695, 1038.395 563.003 C 993.090 579.978, 958.333 617.320, 944.870 663.483 C 934.486 699.087, 937.726 734.282, 954.538 768.500 C 961.052 781.759, 962.256 783.737, 983.459 816 C 990.146 826.175, 997.599 837.538, 1000.021 841.250 C 1002.443 844.962, 1004.953 848, 1005.599 848 C 1007.539 848, 1028.501 825.555, 1033.449 818.180 C 1048.424 795.860, 1048.892 770.013, 1034.845 741 C 1025.861 722.445, 1023.440 711.671, 1024.956 697 C 1025.835 688.495, 1030.384 675.823, 1035.224 668.398 C 1043.068 656.364, 1058.591 644.987, 1072 641.446 C 1080.085 639.310, 1096.335 639.019, 1104.631 640.861 L 1110.763 642.223 1117.631 637.662 C 1121.409 635.154, 1126.525 631.721, 1129 630.035 C 1131.475 628.348, 1139.800 622.880, 1147.500 617.883 C 1155.200 612.887, 1166.722 605.357, 1173.105 601.149 C 1179.487 596.942, 1185.562 592.957, 1186.605 592.294 C 1188.391 591.157, 1188.299 590.914, 1185 588.053 C 1183.075 586.383, 1177.900 582.587, 1173.500 579.617 C 1145.414 560.658, 1109.118 551.692, 1074.040 555.049 M 1276 597.142 C 1263.118 598.470, 1238.442 605.476, 1232.849 609.393 C 1229.580 611.683, 1230.841 611.401, 1238.645 608.101 C 1268.199 595.600, 1304.318 594.292, 1335.796 604.581 C 1379.103 618.738, 1414.927 652.057, 1430.578 692.736 C 1433.793 701.091, 1434.900 701.926, 1432.141 693.914 C 1428.177 682.401, 1418.693 665.540, 1410.253 655 C 1383.868 622.051, 1346.253 601.127, 1306 597.007 C 1295.023 595.883, 1287.897 595.916, 1276 597.142 M 1223.500 613.965 C 1213.260 619.022, 1211.617 620.054, 1169.750 647.733 C 1157.787 655.642, 1148 662.484, 1148 662.938 C 1148 664.053, 1157.927 674.012, 1167.058 682.059 C 1174.853 688.929, 1183.943 695.267, 1188.464 696.986 C 1193.297 698.824, 1192.589 698.003, 1186.500 694.709 C 1183.200 692.924, 1178.468 690.061, 1175.985 688.346 C 1170.721 684.710, 1148.263 663.428, 1149 662.773 C 1149.275 662.529, 1161.425 654.467, 1176 644.858 C 1203.975 626.413, 1213.747 620.287, 1223.446 615.113 C 1229.125 612.084, 1230.831 610.999, 1229.917 611.001 C 1229.688 611.001, 1226.800 612.335, 1223.500 613.965 M 1268 685.367 C 1264.975 686.642, 1259.538 689.127, 1255.918 690.889 C 1252.298 692.651, 1246.223 695.170, 1242.418 696.487 C 1238.613 697.805, 1235.981 698.909, 1236.568 698.941 C 1239 699.075, 1248.957 695.541, 1255.498 692.224 C 1259.349 690.271, 1265.650 687.423, 1269.500 685.895 C 1273.350 684.367, 1275.825 683.101, 1275 683.082 C 1274.175 683.063, 1271.025 684.091, 1268 685.367 M 1310 684.202 C 1311.375 684.834, 1315.789 686.830, 1319.810 688.638 C 1332.720 694.444, 1343.195 704.480, 1349.582 717.163 C 1353.093 724.134, 1354.783 726.207, 1352.914 721.250 C 1349.702 712.733, 1340.118 700.459, 1332.060 694.544 C 1326.452 690.427, 1314.809 684.555, 1310.500 683.669 C 1307.584 683.070, 1307.570 683.085, 1310 684.202 M 1195.741 699.487 C 1204.139 703.137, 1223.016 704.013, 1230 701.076 C 1231.975 700.245, 1231.450 700.173, 1227.500 700.731 C 1219.245 701.897, 1204.882 701.323, 1199.500 699.612 C 1193.351 697.656, 1191.378 697.591, 1195.741 699.487 M 1434.467 703 C 1437.109 713.922, 1439.227 724.418, 1439.995 730.402 L 1440.907 737.500 1440.453 729 C 1439.993 720.381, 1436.854 705.144, 1434.921 702.142 C 1434.069 700.821, 1433.981 700.989, 1434.467 703 M 1354.338 727.500 C 1357.113 736.966, 1357.536 749.141, 1355.486 760.500 L 1354.042 768.500 1358.662 775.500 C 1361.203 779.350, 1364.216 783.850, 1365.359 785.500 C 1366.502 787.150, 1368.888 790.750, 1370.661 793.500 C 1372.433 796.250, 1374.818 799.850, 1375.960 801.500 C 1377.101 803.150, 1381.186 809.337, 1385.037 815.250 C 1388.888 821.163, 1392.281 826, 1392.578 826 C 1393.302 826, 1394.067 827.205, 1373.365 795.758 L 1355.101 768.015 1356.533 761.258 C 1357.321 757.541, 1357.966 750.900, 1357.967 746.500 C 1357.969 738.835, 1356.062 727.683, 1354.496 726.204 C 1354.087 725.817, 1354.015 726.400, 1354.338 727.500 M 1440.168 759.619 C 1439.548 774.803, 1432.608 798.830, 1423.934 815.818 C 1418.683 826.104, 1407.323 843.077, 1405.247 843.738 C 1404.836 843.869, 1403.013 841.394, 1401.195 838.238 C 1398.113 832.887, 1392.928 825.667, 1394.561 829 C 1396.949 833.874, 1404.518 844.994, 1405.425 844.961 C 1407.714 844.878, 1420.999 824.957, 1426.740 813 C 1434.977 795.842, 1441.794 769.780, 1440.742 759.470 L 1440.336 755.500 1440.168 759.619 M 1320.337 817.423 C 1314.377 823.706, 1308.681 830.343, 1307.679 832.173 L 1305.858 835.500 1308.162 832.500 C 1311.310 828.402, 1318.117 820.834, 1325.926 812.750 C 1329.512 809.038, 1332.160 806, 1331.810 806 C 1331.460 806, 1326.297 811.140, 1320.337 817.423 M 1345.811 825.250 C 1352.872 835.837, 1362.215 849.982, 1366.574 856.682 C 1370.933 863.382, 1375.087 869.682, 1375.804 870.682 C 1377.664 873.275, 1372.191 863.385, 1369.632 859.528 C 1368.459 857.761, 1360.075 845.005, 1351 831.181 C 1341.925 817.356, 1334.157 806.035, 1333.738 806.023 C 1333.318 806.010, 1338.751 814.663, 1345.811 825.250 M 1294.888 857.721 C 1292.954 864.381, 1293.228 883.127, 1295.346 889 C 1296.307 891.665, 1296.736 892.276, 1296.397 890.500 C 1293.568 875.662, 1293.412 870.440, 1295.503 860.569 C 1297.222 852.455, 1296.879 850.867, 1294.888 857.721 M 1382.611 884 C 1385.189 889.225, 1388.560 896.875, 1390.101 901 C 1391.642 905.125, 1392.925 908.008, 1392.951 907.407 C 1393.097 904.139, 1382.859 880.493, 1379.570 876.500 C 1378.664 875.400, 1380.033 878.775, 1382.611 884 M 981.968 893.652 C 980.563 900.423, 981.161 919.233, 982.901 923 L 984.056 925.500 983.446 923 C 982.137 917.638, 981.790 899.208, 982.900 894.032 C 983.528 891.104, 983.846 888.513, 983.608 888.275 C 983.370 888.036, 982.632 890.456, 981.968 893.652 M 1394.519 914 C 1399.843 940.753, 1399.787 963.750, 1394.345 985 C 1393.993 986.375, 1394.021 987.213, 1394.408 986.861 C 1395.879 985.525, 1398.986 967.022, 1399.589 956 C 1400.270 943.578, 1398.316 924.340, 1395.526 916 C 1394.699 913.525, 1394.245 912.625, 1394.519 914 M 899.070 932.833 C 898.982 935.753, 902.816 950.939, 904.156 952.983 C 904.933 954.167, 905.005 954.061, 904.485 952.500 C 904.119 951.400, 902.766 946, 901.479 940.500 C 900.193 935, 899.108 931.550, 899.070 932.833 M 1180.336 980.649 L 1190.172 990.708 1187.336 992.909 C 1185.671 994.202, 1185.360 994.697, 1186.582 994.110 C 1191.166 991.907, 1191.187 990.622, 1186.717 985.932 C 1184.394 983.495, 1179.795 979.045, 1176.496 976.045 C 1173.198 973.044, 1174.926 975.116, 1180.336 980.649 M 914.020 976.285 C 913.996 977.228, 915.560 979.814, 922.914 990.991 C 931.977 1004.766, 955.264 1027.419, 966.113 1033.014 C 969.562 1034.792, 967.438 1032.962, 959.974 1027.724 C 945.119 1017.299, 928.851 999.613, 918.270 982.387 C 915.944 978.599, 914.031 975.853, 914.020 976.285 M 1300.562 988.916 C 1295.721 995.511, 1288.057 1002.158, 1280.891 1005.978 C 1277.651 1007.704, 1275 1009.342, 1275 1009.617 C 1275 1009.892, 1277.813 1008.644, 1281.250 1006.842 C 1287.430 1003.604, 1301.457 990.841, 1303.882 986.250 C 1305.847 982.530, 1304.392 983.697, 1300.562 988.916 M 1173.492 1001.627 C 1164.283 1007.734, 1159.216 1011.528, 1163 1009.483 C 1165.975 1007.875, 1184 995.784, 1184 995.397 C 1184 994.686, 1183.603 994.922, 1173.492 1001.627 M 1264 1012.643 C 1258.691 1014.015, 1239.325 1013.986, 1231.500 1012.594 C 1229.850 1012.300, 1230.975 1012.720, 1234 1013.528 C 1241.367 1015.494, 1256.064 1015.464, 1264.853 1013.465 C 1268.784 1012.571, 1272 1011.651, 1272 1011.420 C 1272 1010.782, 1270.039 1011.082, 1264 1012.643 M 1380.687 1019.325 C 1371.623 1036.456, 1354.402 1056.616, 1339.142 1067.964 C 1332.116 1073.189, 1329.413 1075.925, 1334.700 1072.461 C 1345.008 1065.707, 1359.059 1052.204, 1368.478 1040 C 1374.893 1031.689, 1385.742 1013.409, 1384.812 1012.478 C 1384.631 1012.298, 1382.776 1015.379, 1380.687 1019.325 M 1206.380 1025.576 C 1200.946 1029.193, 1195.825 1032.850, 1195 1033.701 C 1193.587 1035.161, 1214.418 1021.728, 1216.450 1019.869 C 1218.996 1017.540, 1215.338 1019.614, 1206.380 1025.576 M 1167.727 1051.035 C 1161.827 1054.905, 1157 1058.293, 1157 1058.566 C 1157 1059.059, 1162.739 1055.513, 1173.409 1048.429 C 1178.310 1045.175, 1179.721 1044, 1178.727 1044 C 1178.577 1044, 1173.627 1047.166, 1167.727 1051.035 M 1008.761 1051.949 C 1012.437 1053.566, 1026.682 1056.192, 1029.187 1055.714 C 1031.094 1055.350, 1030.974 1055.245, 1028.500 1055.119 C 1026.850 1055.034, 1022.575 1054.340, 1019 1053.576 C 1006.169 1050.833, 1006.258 1050.847, 1008.761 1051.949 M 1071.500 1054.153 C 1069.300 1054.661, 1059.400 1055.434, 1049.500 1055.871 L 1031.500 1056.666 1045.500 1056.829 C 1057.796 1056.972, 1077.332 1055.002, 1078.871 1053.463 C 1079.558 1052.776, 1076.040 1053.105, 1071.500 1054.153 M 1153.250 1060.220 C 1152.013 1060.817, 1151 1061.857, 1151 1062.531 C 1151 1063.688, 1158.201 1069.639, 1164.250 1073.483 C 1169.134 1076.586, 1167.170 1074.412, 1161.250 1070.162 C 1150.578 1062.500, 1151.123 1063.191, 1154 1060.972 C 1156.792 1058.819, 1156.586 1058.612, 1153.250 1060.220 M 1321 1079.625 C 1315.775 1082.591, 1307.900 1086.418, 1303.500 1088.130 C 1293.979 1091.833, 1274.147 1097, 1269.452 1097 C 1267.618 1097, 1265.888 1097.373, 1265.606 1097.828 C 1265.030 1098.761, 1274.919 1097.613, 1282.500 1095.867 C 1297.209 1092.478, 1324.739 1080.638, 1329.964 1075.453 C 1332.028 1073.405, 1331.622 1073.594, 1321 1079.625 M 1168.499 1075.998 C 1169.308 1077.307, 1187.292 1086.591, 1193.563 1088.938 C 1201.818 1092.026, 1202.578 1091.357, 1194.455 1088.151 C 1190.581 1086.621, 1183.035 1083.067, 1177.687 1080.251 C 1172.339 1077.436, 1168.205 1075.522, 1168.499 1075.998 M 1205 1092.603 C 1209.163 1094.545, 1225.244 1098.011, 1229.500 1097.884 C 1231.150 1097.835, 1229.125 1097.217, 1225 1096.510 C 1218.650 1095.423, 1211.729 1093.815, 1203.282 1091.466 C 1202.302 1091.194, 1203.075 1091.705, 1205 1092.603 M 1242.296 1098.744 C 1246.583 1098.932, 1253.333 1098.931, 1257.296 1098.742 C 1261.258 1098.552, 1257.750 1098.399, 1249.500 1098.400 C 1241.250 1098.401, 1238.008 1098.556, 1242.296 1098.744" stroke="none" fill="#fac310" fill-rule="evenodd"/><path d="M 1283 597.751 C 1276.495 598.134, 1260.400 600.856, 1254 602.656 C 1240.873 606.348, 1225.862 613.235, 1210 622.843 C 1203.496 626.783, 1150.364 661.563, 1149 662.773 C 1148.167 663.513, 1171.109 684.996, 1177 688.992 C 1187.573 696.164, 1197.431 699.954, 1209.500 701.484 C 1221.420 702.996, 1241.056 698.245, 1258.754 689.567 C 1270.877 683.623, 1276.728 681.973, 1288.088 681.297 C 1324.861 679.110, 1356.063 706.978, 1357.730 743.500 C 1358.041 750.303, 1357.694 755.821, 1356.645 760.760 L 1355.104 768.019 1373.368 795.760 C 1401.682 838.762, 1403.869 842.120, 1404.356 843.349 C 1404.940 844.822, 1408.466 840.708, 1415.372 830.500 C 1422.846 819.451, 1428.569 807.623, 1433.019 794.028 C 1438.571 777.068, 1440.375 765.409, 1440.372 746.500 C 1440.368 721.565, 1436.148 703.261, 1425.388 681.500 C 1398.942 628.014, 1341.625 594.302, 1283 597.751" stroke="none" fill="#cf3130" fill-rule="evenodd"/></svg>